# Blender 3.6.4
# www.blender.org
mtllib untitled.mtl
o Object_6
v -0.089276 -0.006459 -0.414369
v -0.089276 0.243508 -0.418399
v 0.128775 0.005107 0.303141
v 0.128775 0.255075 0.299111
v 0.389126 0.241165 -0.563747
v 0.389126 -0.008803 -0.559717
v 0.607177 0.252732 0.153763
v 0.607177 0.002764 0.157793
v 0.389126 0.241165 -0.563747
v -0.089276 0.243508 -0.418399
v 0.389126 -0.008803 -0.559717
v -0.089276 -0.006459 -0.414369
v 0.607177 0.002764 0.157793
v 0.128775 0.005107 0.303141
v 0.607177 0.252732 0.153763
v 0.128775 0.255075 0.299111
v 0.389126 -0.008803 -0.559717
v -0.089276 -0.006459 -0.414369
v 0.607177 0.002764 0.157793
v 0.128775 0.005107 0.303141
v -0.089276 0.243508 -0.418399
v 0.389126 0.241165 -0.563747
v 0.128775 0.255075 0.299111
v 0.607177 0.252732 0.153763
vn -0.9568 0.0047 0.2907
vn 0.9568 -0.0047 -0.2907
vn -0.2907 -0.0154 -0.9567
vn 0.2907 0.0154 0.9567
vn -0.0000 -0.9999 0.0161
vn -0.0000 0.9999 -0.0161
vt 0.250244 0.625488
vt 0.250244 0.999512
vt 0.312256 0.625488
vt 0.312256 0.999512
vt 0.437744 0.625488
vt 0.437744 0.999512
vt 0.499756 0.625488
vt 0.499756 0.999512
vt 0.437256 0.624512
vt 0.437256 0.500488
vt 0.312744 0.624512
vt 0.312744 0.500488
vt 0.562256 0.500488
vt 0.562256 0.624512
vt 0.437744 0.500488
vt 0.437744 0.624512
vt 0.500244 0.625488
vt 0.500244 0.999512
vt 0.624756 0.625488
vt 0.624756 0.999512
vt 0.312744 0.625488
vt 0.312744 0.999512
vt 0.437256 0.625488
vt 0.437256 0.999512
s 0
usemtl material_0
f 1/1/1 3/2/1 2/3/1
f 3/2/1 4/4/1 2/3/1
f 5/5/2 7/6/2 6/7/2
f 7/6/2 8/8/2 6/7/2
f 9/9/3 11/10/3 10/11/3
f 11/10/3 12/12/3 10/11/3
f 13/13/4 15/14/4 14/15/4
f 15/14/4 16/16/4 14/15/4
f 17/17/5 19/18/5 18/19/5
f 19/18/5 20/20/5 18/19/5
f 21/21/6 23/22/6 22/23/6
f 23/22/6 24/24/6 22/23/6
o Object_9
v -0.209807 -0.017323 -1.088281
v -0.209807 0.482612 -1.096340
v -0.215026 -0.009264 -0.588373
v -0.215027 0.490671 -0.596432
v 0.290166 0.482696 -1.091121
v 0.290166 -0.017239 -1.083062
v 0.284946 0.490755 -0.591213
v 0.284946 -0.009180 -0.583154
v 0.290166 0.482696 -1.091121
v -0.209807 0.482612 -1.096340
v 0.290166 -0.017239 -1.083062
v -0.209807 -0.017323 -1.088281
v 0.284946 -0.009180 -0.583154
v -0.215026 -0.009264 -0.588373
v 0.284946 0.490755 -0.591213
v -0.215027 0.490671 -0.596432
v 0.290166 -0.017239 -1.083062
v -0.209807 -0.017323 -1.088281
v 0.284946 -0.009180 -0.583154
v -0.215026 -0.009264 -0.588373
v -0.209807 0.482612 -1.096340
v 0.290166 0.482696 -1.091121
v -0.215027 0.490671 -0.596432
v 0.284946 0.490755 -0.591213
vn -0.9999 -0.0002 -0.0104
vn 0.9999 0.0002 0.0104
vn 0.0104 -0.0161 -0.9998
vn -0.0104 0.0161 0.9998
vn -0.0000 -0.9999 0.0161
vn -0.0000 0.9999 -0.0161
vt 0.000244 0.250488
vt 0.000244 0.499512
vt 0.124756 0.250488
vt 0.124756 0.499512
vt 0.250244 0.250488
vt 0.250244 0.499512
vt 0.374756 0.250488
vt 0.374756 0.499512
vt 0.249756 0.249512
vt 0.249756 0.000488
vt 0.125244 0.249512
vt 0.125244 0.000488
vt 0.374756 0.000488
vt 0.374756 0.249512
vt 0.250244 0.000488
vt 0.250244 0.249512
vt 0.375244 0.250488
vt 0.375244 0.499512
vt 0.499756 0.250488
vt 0.499756 0.499512
vt 0.125244 0.250488
vt 0.125244 0.499512
vt 0.249756 0.250488
vt 0.249756 0.499512
s 0
usemtl material_0
f 25/25/7 27/26/7 26/27/7
f 27/26/7 28/28/7 26/27/7
f 29/29/8 31/30/8 30/31/8
f 31/30/8 32/32/8 30/31/8
f 33/33/9 35/34/9 34/35/9
f 35/34/9 36/36/9 34/35/9
f 37/37/10 39/38/10 38/39/10
f 39/38/10 40/40/10 38/39/10
f 41/41/11 43/42/11 42/43/11
f 43/42/11 44/44/11 42/43/11
f 45/45/12 47/46/12 46/47/12
f 47/46/12 48/48/12 46/47/12
o Object_12
v -0.239049 -0.005513 -0.355648
v -0.239049 0.119471 -0.357663
v -0.648605 0.004614 0.272573
v -0.648605 0.129598 0.270558
v -0.134332 0.120571 -0.289413
v -0.134332 -0.004413 -0.287398
v -0.543888 0.130698 0.338808
v -0.543888 0.005714 0.340823
v -0.134332 0.120571 -0.289413
v -0.239049 0.119471 -0.357663
v -0.134332 -0.004413 -0.287398
v -0.239049 -0.005513 -0.355648
v -0.543888 0.005714 0.340823
v -0.648605 0.004614 0.272573
v -0.543888 0.130698 0.338808
v -0.648605 0.129598 0.270558
v -0.134332 -0.004413 -0.287398
v -0.239049 -0.005513 -0.355648
v -0.543888 0.005714 0.340823
v -0.648605 0.004614 0.272573
v -0.239049 0.119471 -0.357663
v -0.134332 0.120571 -0.289413
v -0.648605 0.129598 0.270558
v -0.543888 0.130698 0.338808
vn -0.8377 -0.0088 -0.5460
vn 0.8377 0.0088 0.5460
vn 0.5461 -0.0135 -0.8376
vn -0.5461 0.0135 0.8376
vn -0.0000 -0.9999 0.0161
vn -0.0000 0.9999 -0.0161
vt 0.625244 0.562988
vt 0.625244 0.937012
vt 0.656006 0.562988
vt 0.656006 0.937012
vt 0.687744 0.562988
vt 0.687744 0.937012
vt 0.718506 0.562988
vt 0.718506 0.937012
vt 0.687256 0.562012
vt 0.687256 0.500488
vt 0.656494 0.562012
vt 0.656494 0.500488
vt 0.718506 0.500488
vt 0.718506 0.562012
vt 0.687744 0.500488
vt 0.687744 0.562012
vt 0.718994 0.562988
vt 0.718994 0.937012
vt 0.749756 0.562988
vt 0.749756 0.937012
vt 0.656494 0.562988
vt 0.656494 0.937012
vt 0.687256 0.562988
vt 0.687256 0.937012
s 0
usemtl material_0
f 49/49/13 51/50/13 50/51/13
f 51/50/13 52/52/13 50/51/13
f 53/53/14 55/54/14 54/55/14
f 55/54/14 56/56/14 54/55/14
f 57/57/15 59/58/15 58/59/15
f 59/58/15 60/60/15 58/59/15
f 61/61/16 63/62/16 62/63/16
f 63/62/16 64/64/16 62/63/16
f 65/65/17 67/66/17 66/67/17
f 67/66/17 68/68/17 66/67/17
f 69/69/18 71/70/18 70/71/18
f 71/70/18 72/72/18 70/71/18
o Object_15
v 0.458455 -0.007593 -0.484681
v 0.458455 0.117391 -0.486695
v 0.934523 0.001748 0.094779
v 0.934523 0.126732 0.092764
v 0.555044 0.116112 -0.566030
v 0.555044 -0.008872 -0.564015
v 1.031112 0.125453 0.013430
v 1.031112 0.000469 0.015444
v 0.555044 0.116112 -0.566030
v 0.458455 0.117391 -0.486695
v 0.555044 -0.008872 -0.564015
v 0.458455 -0.007593 -0.484681
v 1.031112 0.000469 0.015444
v 0.934523 0.001748 0.094779
v 1.031112 0.125453 0.013430
v 0.934523 0.126732 0.092764
v 0.555044 -0.008872 -0.564015
v 0.458455 -0.007593 -0.484681
v 1.031112 0.000469 0.015444
v 0.934523 0.001748 0.094779
v 0.458455 0.117391 -0.486695
v 0.555044 0.116112 -0.566030
v 0.934523 0.126732 0.092764
v 1.031112 0.125453 0.013430
vn -0.7727 0.0102 0.6347
vn 0.7727 -0.0102 -0.6347
vn -0.6348 -0.0125 -0.7726
vn 0.6348 0.0125 0.7726
vn -0.0000 -0.9999 0.0161
vn -0.0000 0.9999 -0.0161
vt 0.718506 0.562988
vt 0.718506 0.937012
vt 0.687744 0.562988
vt 0.687744 0.937012
vt 0.656006 0.562988
vt 0.656006 0.937012
vt 0.625244 0.562988
vt 0.625244 0.937012
vt 0.656494 0.562012
vt 0.656494 0.500488
vt 0.687256 0.562012
vt 0.687256 0.500488
vt 0.687744 0.500488
vt 0.687744 0.562012
vt 0.718506 0.500488
vt 0.718506 0.562012
vt 0.749756 0.562988
vt 0.749756 0.937012
vt 0.718994 0.562988
vt 0.718994 0.937012
vt 0.687256 0.562988
vt 0.687256 0.937012
vt 0.656494 0.562988
vt 0.656494 0.937012
s 0
usemtl material_0
f 73/73/19 75/74/19 74/75/19
f 75/74/19 76/76/19 74/75/19
f 77/77/20 79/78/20 78/79/20
f 79/78/20 80/80/20 78/79/20
f 81/81/21 83/82/21 82/83/21
f 83/82/21 84/84/21 82/83/21
f 85/85/22 87/86/22 86/87/22
f 87/86/22 88/88/22 86/87/22
f 89/89/23 91/90/23 90/91/23
f 91/90/23 92/92/23 90/91/23
f 93/93/24 95/94/24 94/95/24
f 95/94/24 96/96/24 94/95/24
o Object_18
v 0.521330 0.004937 0.292624
v 0.521330 0.129921 0.290609
v 0.889529 0.015469 0.945937
v 0.889529 0.140453 0.943923
v 0.630229 0.128932 0.229251
v 0.630229 0.003948 0.231265
v 0.998429 0.139464 0.882564
v 0.998429 0.014480 0.884579
v 0.630229 0.128932 0.229251
v 0.521330 0.129921 0.290609
v 0.630229 0.003948 0.231265
v 0.521330 0.004937 0.292624
v 0.998429 0.014480 0.884579
v 0.889529 0.015469 0.945937
v 0.998429 0.139464 0.882564
v 0.889529 0.140453 0.943923
v 0.630229 0.003948 0.231265
v 0.521330 0.004937 0.292624
v 0.998429 0.014480 0.884579
v 0.889529 0.015469 0.945937
v 0.521330 0.129921 0.290609
v 0.630229 0.128932 0.229251
v 0.889529 0.140453 0.943923
v 0.998429 0.139464 0.882564
vn -0.8712 0.0079 0.4909
vn 0.8712 -0.0079 -0.4909
vn -0.4909 -0.0140 -0.8711
vn 0.4909 0.0140 0.8711
vn -0.0000 -0.9999 0.0161
vn -0.0000 0.9999 -0.0161
vt 0.093506 0.562988
vt 0.093506 0.937012
vt 0.062744 0.562988
vt 0.062744 0.937012
vt 0.031006 0.562988
vt 0.031006 0.937012
vt 0.000244 0.562988
vt 0.000244 0.937012
vt 0.031494 0.562012
vt 0.031494 0.500488
vt 0.062256 0.562012
vt 0.062256 0.500488
vt 0.062744 0.500488
vt 0.062744 0.562012
vt 0.093506 0.500488
vt 0.093506 0.562012
vt 0.124756 0.562988
vt 0.124756 0.937012
vt 0.093994 0.562988
vt 0.093994 0.937012
vt 0.062256 0.562988
vt 0.062256 0.937012
vt 0.031494 0.562988
vt 0.031494 0.937012
s 0
usemtl material_0
f 97/97/25 99/98/25 98/99/25
f 99/98/25 100/100/25 98/99/25
f 101/101/26 103/102/26 102/103/26
f 103/102/26 104/104/26 102/103/26
f 105/105/27 107/106/27 106/107/27
f 107/106/27 108/108/27 106/107/27
f 109/109/28 111/110/28 110/111/28
f 111/110/28 112/112/28 110/111/28
f 113/113/29 115/114/29 114/115/29
f 115/114/29 116/116/29 114/115/29
f 117/117/30 119/118/30 118/119/30
f 119/118/30 120/120/30 118/119/30
o Object_21
v 0.171688 0.005460 0.325026
v 0.171688 0.130444 0.323011
v 0.033749 0.017342 1.062136
v 0.033749 0.142326 1.060122
v 0.294555 0.130814 0.345998
v 0.294555 0.005830 0.348013
v 0.156616 0.142697 1.083108
v 0.156616 0.017713 1.085123
v 0.294555 0.130814 0.345998
v 0.171688 0.130444 0.323011
v 0.294555 0.005830 0.348013
v 0.171688 0.005460 0.325026
v 0.156616 0.017713 1.085123
v 0.033749 0.017342 1.062136
v 0.156616 0.142697 1.083108
v 0.033749 0.142326 1.060122
v 0.294555 0.005830 0.348013
v 0.171688 0.005460 0.325026
v 0.156616 0.017713 1.085123
v 0.033749 0.017342 1.062136
v 0.171688 0.130444 0.323011
v 0.294555 0.130814 0.345998
v 0.033749 0.142326 1.060122
v 0.156616 0.142697 1.083108
vn -0.9829 -0.0030 -0.1839
vn 0.9829 0.0030 0.1839
vn 0.1839 -0.0158 -0.9828
vn -0.1839 0.0158 0.9828
vn -0.0000 -0.9999 0.0161
vn -0.0000 0.9999 -0.0161
vt 0.000244 0.562988
vt 0.000244 0.937012
vt 0.031006 0.562988
vt 0.031006 0.937012
vt 0.062744 0.562988
vt 0.062744 0.937012
vt 0.093506 0.562988
vt 0.093506 0.937012
vt 0.062256 0.562012
vt 0.062256 0.500488
vt 0.031494 0.562012
vt 0.031494 0.500488
vt 0.093506 0.500488
vt 0.093506 0.562012
vt 0.062744 0.500488
vt 0.062744 0.562012
vt 0.093994 0.562988
vt 0.093994 0.937012
vt 0.124756 0.562988
vt 0.124756 0.937012
vt 0.031494 0.562988
vt 0.031494 0.937012
vt 0.062256 0.562988
vt 0.062256 0.937012
s 0
usemtl material_0
f 121/121/31 123/122/31 122/123/31
f 123/122/31 124/124/31 122/123/31
f 125/125/32 127/126/32 126/127/32
f 127/126/32 128/128/32 126/127/32
f 129/129/33 131/130/33 130/131/33
f 131/130/33 132/132/33 130/131/33
f 133/133/34 135/134/34 134/135/34
f 135/134/34 136/136/34 134/135/34
f 137/137/35 139/138/35 138/139/35
f 139/138/35 140/140/35 138/139/35
f 141/141/36 143/142/36 142/143/36
f 143/142/36 144/144/36 142/143/36
